<svg xmlns="http://www.w3.org/2000/svg" viewBox="0 0 512 512" width="40" height="40"><path d="M342 328c-12 0-22-8-22-19 0-10 10-19 22-19s22 9 22 19a10 10 0 0020 0c0-18-14-33-32-38v-5a10 10 0 00-20 0v5c-18 5-32 20-32 38 0 22 19 39 42 39 12 0 22 9 22 19s-10 19-22 19-22-8-22-19a10 10 0 00-20 0c0 19 14 34 32 38v5a10 10 0 0020 0v-5c18-4 32-19 32-38 0-21-19-39-42-39zM451 269c-13-20-31-37-53-47a10 10 0 10-8 18 111 111 0 0149 151 10 10 0 1018 9 130 130 0 00-6-131zM358 209h-1a10 10 0 000 20h1a10 10 0 000-20zM294 438a111 111 0 01-49-151 10 10 0 10-18-9 130 130 0 0059 178 10 10 0 0013-4c2-5 0-11-5-14zM327 449h-1a10 10 0 100 20h1a10 10 0 000-20z"/><path d="M387 175l-4-8h26a46 46 0 000-92h-80a46 46 0 00-38-72H46a46 46 0 000 92h80a46 46 0 000 52h-26a46 46 0 00-29 82 46 46 0 000 72 46 46 0 000 72 46 46 0 0029 82h118a170 170 0 00294-116c0-78-53-144-125-164zm22-80a26 26 0 010 52H164a26 26 0 010-52h245zM46 75a26 26 0 010-52h245a26 26 0 010 52H46zm54 92h245c4 0 8 1 11 3a171 171 0 00-134 49H100a26 26 0 010-52zm0 72h105c-12 16-21 33-26 52h-79a26 26 0 010-52zm0 72h74a170 170 0 000 52h-74a26 26 0 010-52zm0 124a26 26 0 010-52h78c5 19 13 36 24 52H100zm242 54a150 150 0 110-300 150 150 0 010 300z"/></svg>