<svg height="40" viewBox="0 0 512 512" width="40" xmlns="http://www.w3.org/2000/svg"><path d="M505 497H333v-71l14 2h115c28 0 50-23 50-50 0-4-3-8-8-8h-20l-59-109a30 30 0 00-13-51V89h19v4c0 10 15 10 15 0v-4h37c25 0 25-40 0-40h-37v-8c0-9-15-9-15 0v8h-19v-8c0-9-15-9-15 0v8h-62V33a27 27 0 00-43-21 27 27 0 00-44 0 27 27 0 00-40 8c-4-3-10-5-15-5-15 0-27 12-27 27v7h-51v-8c0-9-15-9-15 0v8H81v-8c0-9-15-9-15 0v8H29C4 49 4 89 29 89h37v4c0 10 15 10 15 0v-4h19v121a30 30 0 00-13 51L28 370H8c-5 0-8 4-8 8 0 27 22 50 50 50h115l14-2v71H8a8 8 0 000 15h497a8 8 0 000-15zm-38-127h-15a8 8 0 000 15h44c-3 16-17 28-34 28H347c-17 0-31-12-34-28h99v-15h-70l55-102h15zM194 269h124v35H194zm226-30a15 15 0 11-31 0 15 15 0 0131 0zm-23-29a30 30 0 00-13 51l-51 94v-93c0-4-3-8-7-8h-7c0-15 5-29 15-40 24-23 44-47 44-83v-30l-3-12h22v121zm86-146c6 0 6 10 0 10h-37V64zm-52 0v10h-19V64zm-34 0v10h-62V64zm-89-43c7 0 12 6 12 12v41h-24V33c1-7 6-12 12-12zm-38-6c6 0 11 5 11 12v47c-6 2-10 7-10 14s1 14 5 19c-8 5-18-1-18-10V27c0-7 5-12 12-12zm-39 6c7 0 12 5 12 12v59a12 12 0 01-23 0V33c0-6 5-12 11-12zm-50 21a12 12 0 0124 0v41a12 12 0 01-24 0zm-15 22v10h-51V64zM29 74c-6 0-6-10 0-10h37v10zm52 0V64h19v10H81zm85 15v35a8 8 0 0015 0v-17a27 27 0 0027-2 27 27 0 0040 8 27 27 0 0038 6c6 5 15 8 24 8h12v1c-32 3-58 31-58 65a8 8 0 0015 0c0-28 23-51 51-51 4 0 7-3 7-7v-15c0-4-3-8-7-8h-20c-13 0-24-10-24-23h66c6 0 11 5 11 12v30c0 32-19 52-39 73a69 69 0 00-20 50h-97c1-17-5-32-14-46-8-12-12-26-12-40a8 8 0 00-15 0c0 17 5 34 14 48 8 12 13 24 12 38h-6c-4 0-7 4-7 8v93l-51-94a30 30 0 00-13-51V89zm-58 135a15 15 0 110 30 15 15 0 010-30zm-8 44h15l55 102H45zM50 413c-17 0-31-12-34-28h183c-3 16-17 28-34 28zm144 84v-78c13-9 21-24 21-41 0-4-3-8-7-8h-14v-51h124v51h-14c-4 0-7 4-7 8 0 17 8 32 21 41v78z"/></svg>