<?xml version="1.0"?>
<svg xmlns="http://www.w3.org/2000/svg" version="1.1" width="27" height="27"  x="0" y="0" viewBox="0 0 512 512"><g><g xmlns="http://www.w3.org/2000/svg"><circle cx="248.5" cy="248.5" fill="#b7c5c8" r="248.5" data-original="#b7c5c8" style=""/><path d="m248.5 30v437c120.674 0 218.5-97.826 218.5-218.5s-97.826-218.5-218.5-218.5z" fill="#ff0037" data-original="#ff0037" style="" class=""/><path d="m437 248.5c0-120.674-84.394-218.5-188.5-218.5-120.674 0-218.5 97.826-218.5 218.5s97.826 218.5 218.5 218.5c104.106 0 188.5-97.826 188.5-218.5z" fill="#ff4437" data-original="#ff4437" style="" class=""/><path d="m319.725 106.869c-21.414-10.791-45.609-16.869-71.225-16.869l79.161 33.642c1.444-6.426-1.441-13.5-7.936-16.773z" fill="#d9f9ff" data-original="#d9f9ff" style="" class=""/><path d="m390.131 177.275c-4.615-9.159-16.795-11.185-24.047-3.933l-3.101 3.101v144.113l3.101 3.101c7.252 7.252 19.431 5.226 24.047-3.933 10.791-21.413 16.869-45.608 16.869-71.224s-6.078-49.811-16.869-71.225z" fill="#d9f9ff" data-original="#d9f9ff" style="" class=""/><path d="m177.275 106.869c-9.159 4.615-11.185 16.795-3.933 24.047l75.158 75.158 75.158-75.158c2.109-2.109 3.411-4.639 4.003-7.274-21.819-21.076-49.3-33.642-79.161-33.642-25.616 0-49.811 6.078-71.225 16.869z" fill="#ffffff" data-original="#ffffff" style="" class=""/><path d="m362.983 176.444-72.056 72.056 72.056 72.056c8.961-21.618 14.017-46.108 14.017-72.056s-5.056-50.438-14.017-72.056z" fill="#ffffff" data-original="#ffffff" style="" class=""/><path d="m327.661 373.358-79.161 33.642c25.616 0 49.811-6.078 71.225-16.869 6.495-3.273 9.38-10.347 7.936-16.773z" fill="#d9f9ff" data-original="#d9f9ff" style="" class=""/><g fill="#fff"><path d="m248.5 290.926-75.158 75.158c-7.252 7.252-5.226 19.431 3.933 24.047 21.414 10.791 45.609 16.869 71.225 16.869 29.861 0 57.342-12.566 79.161-33.642-.592-2.635-1.894-5.165-4.003-7.274z" fill="#ffffff" data-original="#ffffff" style="" class=""/><path d="m130.916 173.342c-7.252-7.252-19.431-5.226-24.047 3.933-10.791 21.414-16.869 45.609-16.869 71.225s6.078 49.811 16.869 71.225c4.615 9.159 16.795 11.185 24.047 3.933l75.158-75.158z" fill="#ffffff" data-original="#ffffff" style="" class=""/></g></g></g></svg>
