<svg xmlns="http://www.w3.org/2000/svg" width="27" height="27" viewBox="0 0 512 512"><g xmlns="http://www.w3.org/2000/svg"><circle cx="248.5" cy="248.5" fill="#b7c5c8" r="248.5" data-original="#b7c5c8"/><path d="M248.5 30v437a218.5 218.5 0 000-437z" fill="#ff0037" data-original="#ff0037"/><path d="M437 248.5C437 127.8 352.6 30 248.5 30a218.5 218.5 0 000 437C352.6 467 437 369.2 437 248.5z" fill="#ff4437" data-original="#ff4437"/><path d="M319.7 106.9A157.8 157.8 0 00248.5 90l79.2 33.6a15 15 0 00-8-16.7zM390.1 177.3a15 15 0 00-24-4l-3.1 3.1v144.2l3 3a15 15 0 0024.1-3.9 157.8 157.8 0 000-142.4z" fill="#d9f9ff" data-original="#d9f9ff"/><path d="M177.3 106.9a15 15 0 00-4 24l75.2 75.2 75.2-75.2c2-2 3.4-4.6 4-7.3A113.6 113.6 0 00248.5 90c-25.6 0-49.8 6-71.2 16.9zM363 176.4l-72 72.1 72 72c9-21.6 14-46 14-72s-5-50.4-14-72z" fill="#fff" data-original="#ffffff"/><path d="M327.7 373.4L248.5 407c25.6 0 49.8-6 71.2-16.9a15 15 0 008-16.7z" fill="#d9f9ff" data-original="#d9f9ff"/><g fill="#fff"><path d="M248.5 291l-75.2 75a15 15 0 004 24.1 157.8 157.8 0 0071.2 16.9c29.9 0 57.3-12.6 79.2-33.6-.6-2.7-2-5.2-4-7.3zM131 173.3a15 15 0 00-24.1 4 157.8 157.8 0 000 142.4 15 15 0 0024 4l75.2-75.2z" data-original="#ffffff"/></g></g></svg>