<svg height="40" viewBox="0 0 512 512" width="40" xmlns="http://www.w3.org/2000/svg"><path d="M256 102c6 0 10-5 10-10V41a10 10 0 00-20 0v51c0 5 4 10 10 10zM181 118a10 10 0 1017-10l-27-43a10 10 0 10-17 11zM317 122a10 10 0 0014-4l27-42a10 10 0 00-17-11l-27 43c-3 4-1 11 3 14z"/><path d="M509 266l-18-30a10 10 0 10-17 10l17 30a5 5 0 01-1 7l-27 15c-3 1-6 0-7-2l-7-12-70-125a5 5 0 012-6l26-15c3-1 6-1 7 2l16 27a10 10 0 0017-9l-15-28c-7-12-22-16-34-10l-27 15a25 25 0 00-10 33l-15 4-12 3-8-2-8-3-26-9c-14-5-21-5-30-4l-45 4c-20 2-33 6-40 14l-26-7a25 25 0 00-10-33l-27-15c-12-6-27-2-34 10L3 266a25 25 0 0010 34l27 15a25 25 0 0033-9l3-5c8 3 14 8 19 14a33 33 0 00-1 43c6 7 14 11 23 12a33 33 0 0029 37 33 33 0 0030 37 33 33 0 0033 37c7 0 15-2 21-7l21-17 5-4 11 9a33 33 0 0048-5l6-15a33 33 0 0015 2 33 33 0 0030-37 34 34 0 0029-37 33 33 0 0030-37c-1-7-4-13-8-18 5-6 11-11 19-14l3 5a25 25 0 0033 9l27-15c6-3 10-8 12-15 2-6 1-13-2-19zM56 296c-1 2-4 3-7 2l-27-15-2-3 1-4 77-136c1-2 2-3 4-3l3 1 26 15 3 3-1 3zm73 51c-3 3-6 4-10 3a14 14 0 01-12-15c0-3 2-7 5-9l37-30a14 14 0 0122 12c0 4-2 7-5 9v1l-37 29zm10 35c-2-3-3-6-3-10l5-9 54-43a14 14 0 0122 12c0 4-2 7-5 9l-53 43c-6 5-15 4-20-2zm39 42a13 13 0 01-12-15c0-4 2-7 5-9l37-30c6-5 15-4 20 2 2 3 3 6 2 10 0 4-2 7-5 9l-37 30c-3 2-6 3-10 3zm66 8c-1 4-3 7-6 9l-20 17a14 14 0 01-23-12c1-4 3-7 5-9h1l20-17c6-5 15-4 20 2 2 3 3 7 3 10zm158-87c-2 3-5 5-9 5-4 1-7 0-10-3l-27-21a10 10 0 10-12 16l27 21a14 14 0 11-17 21l-30-23a10 10 0 00-12 16l29 23a14 14 0 012 19c-2 3-5 5-9 5s-7-1-10-3l-14-11h-1l-12-10-2-2a10 10 0 10-13 16l15 11a14 14 0 01-17 21l-17-13a33 33 0 00-19-33 33 33 0 00-1-40c-3-5-7-8-12-10a33 33 0 00-1-40 34 34 0 00-39-10c-1-5-4-10-7-14a34 34 0 00-47-5l-27 21c-6-8-14-14-24-19l55-97 30 8v5c7 30 34 43 70 36 31-6 43 3 68 21l9 6 50 38 32 26c3 2 5 6 5 9 0 4-1 7-3 10zm0-43l-22-17c-13-11-32-26-51-39l-8-6c-26-19-44-33-83-25-12 3-41 5-47-20v-6c2-2 7-6 28-8l45-4c7-1 11-1 22 3l26 9 7 3c13 4 16 4 33 0l19-6 55 97c-10 5-18 11-24 19z"/><path d="M461 212a10 10 0 10-10-10c0 5 4 10 10 10z"/></svg>