<svg xmlns="http://www.w3.org/2000/svg" width="40" height="40" viewBox="0 0 512 512"><path xmlns="http://www.w3.org/2000/svg" d="M210 448l-1 7 1-7a8 8 0 10-3 15h2a7 7 0 001-15zm0 0M268 450v8-8a7 7 0 101 15c5 0 7-4 7-8s-4-7-8-7zm0 0M239 451c-4 0-8 3-8 7a8 8 0 0015 1c0-4-3-8-7-8zm0 0M183 440c-4-1-9 1-10 5a8 8 0 007 10 7 7 0 003-15zm0 0M296 445l2 7-2-7a8 8 0 104 15c4-2 6-6 5-10s-5-6-9-5zm0 0M323 436l3 6-3-6a8 8 0 006 13c4-1 6-6 4-10-2-3-6-5-10-3zm0 0M154 94l4-1a7 7 0 00-7-13h-1c-3 2-5 6-3 10 2 2 4 4 7 4zm0 0M67 177a7 7 0 0010-3h1a7 7 0 00-14-7c-2 4 0 9 3 10zm0 0M57 206a7 7 0 009-5 7 7 0 00-14-5c-1 4 1 8 5 10zm0 0M82 151a7 7 0 0011-1v-1a7 7 0 00-13-8l6 4-6-4c-2 3-1 8 2 10zm0 0M129 110l4-2a7 7 0 10-9-12 8 8 0 005 14zm0 0M50 319a7 7 0 0014-4 7 7 0 00-14 4zm0 0M106 130c2 0 4-1 5-3a8 8 0 00-10-10 7 7 0 005 13zm0 0M58 287a8 8 0 00-15 2 7 7 0 0015-2zm0 0M49 265c4 0 7-3 8-7a7 7 0 00-15 0c-1 4 3 7 7 7zm0 0M51 235h1c3 0 7-2 7-6a7 7 0 00-15-3c0 5 2 8 7 9zm0 0M404 154a7 7 0 0011 2c3-3 4-8 2-11l-7 4 7-4a8 8 0 00-13 8zm0 0M443 229c-5 1-7 4-7 8v1a8 8 0 0015-2c-1-4-4-7-8-7zm0 0M430 208a8 8 0 1014-4 7 7 0 10-14 4zm0 0M419 180a8 8 0 0010 3c4-2 6-6 4-10l-7 3 7-3a7 7 0 00-14 7zm0 0M385 130a7 7 0 0011 0c3-3 3-7 0-10a7 7 0 00-11 10zm0 0M445 260c-4 0-8 4-8 8a8 8 0 0015 0c0-4-3-7-7-8zm0 0M337 93h1a7 7 0 0010-3c2-3 0-8-3-10l-4 7 4-7a8 8 0 00-8 13zm0 0M363 110a7 7 0 0010-2c3-3 2-8-1-10a7 7 0 10-9 12zm0 0" data-original="#000000"/><path xmlns="http://www.w3.org/2000/svg" d="M507 374l-35-35a16 16 0 00-22 0h-1l-2-2a30 30 0 01-9-21v-10a7 7 0 0011-5 8 8 0 00-11-9c-1-10-5-20-13-28l-34-34a40 40 0 00-52-5l-3-3v-86c0-10-4-20-11-28-5-6-7-13-7-20v-6c9 0 16-8 16-16V16c0-9-7-16-16-16H178c-9 0-16 7-16 16v50c0 8 7 16 16 16h1v3c0 8-3 16-9 21l-15 15c-8 8-12 19-12 31v48c0 7 1 13 4 18-10 1-19 5-26 12l-34 34c-8 8-13 19-13 30v22c0 8-3 15-9 21l-2 2h-1a16 16 0 00-22 0L5 374c-7 6-7 16 0 22l12 12a7 7 0 1010-10l-12-12v-1l35-36h2l6 6 83 84 10 10v1l-35 35h-2l-65-66a7 7 0 10-11 11l66 66a16 16 0 0022 0l35-36c7-6 7-16 0-22l4-5c6-5 12-8 20-9 10 0 20-5 27-12l32-33c10-2 17-10 19-19l11 2c14 0 26-11 26-25v-18l10 2c14 0 26-11 26-25v-53l23 23a7 7 0 0010 0c3-3 3-7 0-10l-19-20a25 25 0 0131 5l34 34c5 5 8 12 8 19v22c0 12 4 23 13 32l2 2-11 11-65 66-4-4-1-1c-8-7-18-12-29-13-6 0-13-3-18-8l-24-24a8 8 0 00-11 10l25 25c7 7 17 12 27 12 8 1 14 4 20 9l1 1 3 4c-7 6-7 16 0 22l35 36a16 16 0 0022 0l99-100c7-6 7-16 0-22zm-64-75h-2zM201 401c-4 5-11 8-17 8-11 1-21 6-29 13l-5 5-4-4-72-73 2-2c9-9 13-20 13-32v-22c0-7 3-14 8-19l34-34a25 25 0 0131-5l-19 20a8 8 0 0010 10l23-23v94a26 26 0 0037 23c1 7 6 14 13 17zm120-105c0 6-5 10-11 10s-10-4-10-10v-84a7 7 0 10-15 0v125c0 6-5 10-11 10-5 0-10-3-10-8V212a7 7 0 00-12-7c-2 2-4 4-4 7v125l1 3v15c0 6-5 10-11 10s-11-4-11-10V212a8 8 0 00-15 0v125c0 6-4 10-10 10s-11-4-11-10V197a8 8 0 10-15 0v26l-2 1c-9-4-16-13-16-24v-48c0-8 3-15 8-20l15-15c9-9 13-20 13-32v-3h15a7 7 0 100-15h-31l-1-1V16l1-1h140l1 1v50l-1 1h-73a7 7 0 100 15h58v6c0 11 4 21 11 30 4 5 7 11 7 18zm176 90l-99 99h-1-1l-35-35v-2l6-5 57-58 36-36h2l35 36v1zm0 0" data-original="#000000"/><path xmlns="http://www.w3.org/2000/svg" d="M202 33a8 8 0 100 16 8 8 0 000-16zm0 0M463 375a8 8 0 100 16 8 8 0 000-16zm0 0M125 451a8 8 0 10-16 0 8 8 0 0016 0zm0 0" data-original="#000000"/></svg>