<svg xmlns="http://www.w3.org/2000/svg" width="30" height="30" viewBox="0 0 512 512"><path d="M458 98h16a10 10 0 000-20h-38c-6 0-10 4-10 10v38a10 10 0 0020 0v-11a235 235 0 01-190 377 236 236 0 1129-470 10 10 0 002-20A260 260 0 0075 75a254 254 0 000 362 254 254 0 00362 0 254 254 0 0021-339z"/><path d="M108 151c-4-3-10-2-13 3a192 192 0 00161 293 190 190 0 00135-326 191 191 0 00-237-27 10 10 0 0011 17 171 171 0 11-54 53c4-4 2-10-3-13z"/><path d="M386 266h13a10 10 0 000-20h-13a10 10 0 000 20zM104 256c0 6 4 10 10 10h12a10 10 0 000-20h-12c-6 0-10 4-10 10zM266 126v-12a10 10 0 00-20 0v12a10 10 0 0020 0zM246 386v13a10 10 0 0020 0v-13a10 10 0 00-20 0zM206 192a10 10 0 00-14 14l34 34a34 34 0 1061 0l68-68a10 10 0 00-14-15l-69 69a34 34 0 00-32 0l-34-34zm65 64a14 14 0 11-29 0 14 14 0 0129 0zM135 135c2-2 3-4 3-7s-1-5-3-7a10 10 0 00-14 0 10 10 0 000 14 10 10 0 0014 0zM325 30a10 10 0 0010-10 10 10 0 00-10-10 10 10 0 00-10 10 10 10 0 0010 10z"/></svg>