<svg xmlns="http://www.w3.org/2000/svg" width="1920" height="1080" viewBox="0 0 1440 810" version="1.2"><defs><clipPath id="a"><path d="M448 512h645v247H448zm0 0"/></clipPath><clipPath id="b"><path d="M438 246h645v513H438zm0 0"/></clipPath><clipPath id="c"><path d="M567 394h452v306H567zm0 0"/></clipPath><clipPath id="d"><path d="M567 469h451v229H567zm0 0"/></clipPath><clipPath id="e"><path d="M649 377h289v277H649zm0 0"/></clipPath></defs><path d="M428 653l202-185 438 7-161 194-479-16" fill-rule="evenodd" fill="#d13123"/><g clip-path="url(#a)"><path d="M1059 513c19 0 34 16 34 36s-15 36-34 36-34-16-34-36 15-36 34-36zM485 671a37 37 0 0137 37c0 20-16 34-36 34s-37-14-37-34c0-9 2-20 7-26 6-8 17-11 29-11zm397 16l12-1c19 0 34 16 34 36s-15 36-34 36l-12 1c-19 0-34-16-34-36s15-36 34-36" fill-rule="evenodd" fill="#3b435f"/></g><path d="M428 653l475 14 166-193 8 34-173 191-476-20v-26" fill-rule="evenodd" fill="#fce8bc"/><path d="M605 230l11 102-185 97 2-130 172-69" fill-rule="evenodd" fill="#3b435f"/><path d="M594 60l-17 5s34 350 45 420c1 6 18 5 18-1-5-70-46-424-46-424zm-167 43s32 450 36 540c0 5-16 7-16 2-11-90-46-538-46-538l26-4" fill-rule="evenodd" fill="#fce8bc"/><path d="M400 85c16-14 149-47 182-55 6-2 14 1 17 6 3 6 5 24 3 28-1 4-24 9-29 7-5-1 2-16-3-15-24 5-115 35-139 45-4 2 1 12-3 14-5 3-26 5-28 1s-4-27 0-31" fill-rule="evenodd" fill="#3b435f"/><g clip-path="url(#b)"><path d="M240 505L51 409m180 183L48 516m723-239l4-4 10-13c9-17 11-42-5-55M576 2c1-2 6 2 6 2 6 5 10 12 13 19 7 18 3 40-13 53M110 22c8 4 13 10 17 17 9 18 5 38-8 53" transform="matrix(.86369 0 0 -.86352 398 759)" fill="none" stroke-width="1.8" stroke-linecap="round" stroke-linejoin="round" stroke="#fce8bc" stroke-miterlimit="10"/></g><path d="M585 104l3-35" transform="matrix(.86369 0 0 -.86352 398 759)" fill="none" stroke-width="1.8" stroke-linecap="round" stroke-linejoin="round" stroke="#3b435f" stroke-miterlimit="10"/><g clip-path="url(#c)"><path d="M569 619l-1-143 221-81 230 73-4 126-176 106-270-81" fill-rule="evenodd" fill="#f5ba53"/></g><path d="M591 533l-3 74 38 12 6-75zm78-23l79-41 45 14-75 42-10 54-43-11 4-58M823 504l-36 22 49 16 36-22zm154 37l-4 49-117 53v-52l121-50" fill-rule="evenodd" fill="#fef7e4"/><path d="M926 585l26-22 4 15-4-1-1 3h-7l6 4 4-4 3-1 2 8-32 1-44 21-12 13v-26l11 6zm41 2l-42 19-62 27 1-38 65-27 41-18zm5-40h-1l-43 19-65 28-2 41 1 1h1l63-28 43-19 1-1 3-40-1-1" fill-rule="evenodd" fill="#d13123"/><g clip-path="url(#d)"><path d="M767 628l-2-2h-5l-2 2v4l1 2 1 1h3l3-2 1-2v-3zm2-1l2 5-3 4a9 9 0 01-6 3c-2 0-4-1-5-3s-2-3-1-4l2-5 2-2 5-1c2 0 3 1 4 3zm-8-21h-1 1zm-10 2zm9-2h1-1zm-9 1a27 27 0 012-12l2-2h3l2 3v6h5l4 1 1 1 1-3-2-3v-1l-1 1v-1h1c2 0 3 2 3 4 1 2 0 4-1 6h-2l-1-1v-1h-6l-1 1v2l-2 1-2-1v-3l-1-6v-2-1 1l-2 3-1 4-1 3v1h-1v-1zm9 11zm-4-4c0-1 0 0 0 0zm-1 0v-1zm-4 6v0zm-1 0h-1 1zm22-5l4-1-4 2h-2l-3-1h-1l-2 2-2 3-3 1-1-1-1-2-1-3-1-1-1 2-1 4-1 2-2 1-1-1-1-1v-2-3-4-2h1v2l1 5 2-5 3-2 3 1 1 3 1 4 5-5h2l2 1 1 1h2zm9 2c0-9-2-18-6-25-4-6-8-9-13-9s-10 3-13 8-5 14-5 23 3 17 7 23c3 5 8 8 13 8s9-2 12-6c3-6 5-13 5-22zm-5-26c4 7 7 17 7 26s-2 17-5 23c-4 5-8 8-14 8s-11-4-15-9c-4-7-7-16-7-25 0-10 2-18 6-24 3-6 8-9 14-9s11 4 14 10zm12 26c0-12-3-24-8-32-5-7-11-12-18-12-6 0-12 4-16 10-5 7-7 18-7 29 0 12 3 23 9 31 5 6 11 10 17 10 7 0 12-3 16-9 5-6 7-16 7-27zm-7-33c6 9 9 21 9 33s-2 22-7 29c-4 5-10 9-18 9-7 0-14-4-19-11-6-8-9-19-9-32 0-11 3-22 8-30 4-6 10-11 17-10v-1c8 0 14 5 19 13zm236-113l-177 87 1 1v138a1 1 0 01-2 0v-69-28a16519 16519 0 010-42l-108-32-163-48-1-1 1-1 163 48 109 32 176-86h1v1" fill-rule="evenodd" fill="#bd651d"/></g><g clip-path="url(#e)"><path d="M842 520h4v1h-4zm-4-2h2v2h-2zm-8 5h3v2h-3zm-8-2l2 2-3 2-2-2zm36 0l3-2 3 1-3 2zm-32-12l-3 2-3-2 3-1zm-29 16l2-2 3 2-2 1zm69-5l-4 3-6-2 4-3zm-13 1l9 4 7-5-9-3zm-30-9l-5-2 4-4 6 2zm-1-7l-7 5 9 4 7-6zm-18 19l-4 3-6-2 5-3zm-13 1l9 3 7-4-8-3zm-10-81c-6-4-17-11-26-19-6-4-11-10-14-15s-5-15-3-21c1-5 3-8 9-8l6 2 8 8a137 137 0 0122 41l5 19-1-1-6-6zm52-24c21-8 43-8 48-7 6 2 9 6 10 12l-22 2-34 11c-16 6-30 12-33 12l-7 2v-3c9-15 23-24 38-29zm57 15c-3 9-10 16-20 15h-19l-45 5-4-1h1l34-12a362 362 0 0154-14l-1 7zm41 88l-6-18c-5-6-14-12-25-17-22-9-52-17-66-23l-12-4-12-3 41-4h19c12 2 21-7 24-18l1-7 4 1a2 2 0 002-3l-6-2c-1-7-5-14-12-16-6-1-29-2-51 7-16 5-32 15-40 31l-1 1-4-18a133 133 0 00-22-41c-3-3-6-7-10-9-2-2-5-3-8-3-8 0-12 5-13 11-2 7 0 18 3 24 4 6 9 11 15 16l27 19 3 4c-20-4-50-11-76-14-11-1-22-2-30-1l-14 3v3h2l12-3 30 2c26 3 58 10 79 14h-1l-16 1h-53c-15 0-31 1-44 6-11 4-19 11-21 23l3 1c3-14 15-20 29-23 10-2 21-3 31-3l31 1 15-1h9l15-1-55 37c-10 7-20 14-27 21-6 6-12 14-17 23-6 13-11 28-14 42-7 27-7 54-5 65l1 5 3 1 2-1v-2h-2v-1l-1-4c-2-13 0-46 9-76 6-19 15-37 27-49 7-7 16-14 26-21 20-15 45-30 61-41l4 2a133 133 0 0120 11l17 16 17 18c5 4 10 9 17 12l14 8c3 1 6 2 8 1l-1-3-7-2-12-7c-6-3-11-8-16-12l-17-18a136 136 0 00-28-22l-2-1a496 496 0 0128 8c13 6 43 13 65 23 11 5 19 10 24 16 2 2 3 8 5 15 4 18 6 45 6 70 0 24-2 46-9 56v2h3c7-10 10-33 10-58 0-26-2-53-6-70" fill-rule="evenodd" fill="#3b435f"/></g></svg>