<?xml version="1.0" encoding="UTF-8"?>
<svg xmlns="http://www.w3.org/2000/svg"
  xmlns:xlink="http://www.w3.org/1999/xlink" width="1440pt" height="809.999993pt" viewBox="0 0 1440 809.999993" version="1.2">
  <defs>
    <clipPath id="clip1">
      <path d="M 448 512 L 1092.59375 512 L 1092.59375 758.839844 L 448 758.839844 Z M 448 512 "/>
    </clipPath>
    <clipPath id="clip2">
      <path d="M 438 246 L 1083 246 L 1083 758.839844 L 438 758.839844 Z M 438 246 "/>
    </clipPath>
    <clipPath id="clip3">
      <path d="M 567.070312 394 L 1018.570312 394 L 1018.570312 700.476562 L 567.070312 700.476562 Z M 567.070312 394 "/>
    </clipPath>
    <clipPath id="clip4">
      <path d="M 567.070312 469 L 1018 469 L 1018 698 L 567.070312 698 Z M 567.070312 469 "/>
    </clipPath>
    <clipPath id="clip5">
      <path d="M 649 376.773438 L 938 376.773438 L 938 654 L 649 654 Z M 649 376.773438 "/>
    </clipPath>
  </defs>
  <g id="surface1">
    <path style=" stroke:none;fill-rule:evenodd;fill:rgb(81.959534%,19.219971%,13.729858%);fill-opacity:1;" d="M 427.925781 653.328125 L 629.710938 467.941406 L 1067.867188 475.230469 L 907.207031 668.777344 L 427.925781 653.328125 "/>
    <g clip-path="url(#clip1)" clip-rule="nonzero">
      <path style=" stroke:none;fill-rule:evenodd;fill:rgb(23.139954%,26.269531%,37.249756%);fill-opacity:1;" d="M 1058.925781 512.703125 C 1077.515625 512.703125 1092.59375 528.894531 1092.59375 548.863281 C 1092.59375 568.832031 1077.515625 585.023438 1058.925781 585.023438 C 1040.335938 585.023438 1025.222656 568.832031 1025.222656 548.863281 C 1025.222656 528.894531 1040.335938 512.703125 1058.925781 512.703125 Z M 485.28125 671.140625 C 495.808594 671.140625 505.320312 675.59375 512 682.675781 C 518.140625 689.1875 521.921875 697.957031 521.921875 707.570312 C 521.921875 727.671875 506.230469 741.535156 486.023438 741.535156 C 465.78125 741.535156 448.609375 727.671875 448.609375 707.570312 C 448.609375 699.339844 450.867188 688.445312 455.523438 682.339844 C 462.203125 673.535156 473.339844 671.140625 485.28125 671.140625 Z M 881.769531 686.554688 C 883.523438 686.554688 891.652344 686.148438 894.082031 686.148438 C 912.671875 686.148438 927.785156 702.339844 927.785156 722.308594 C 927.785156 742.246094 912.671875 758.46875 894.082031 758.46875 C 892.363281 758.46875 884.265625 758.839844 881.769531 758.839844 C 863.179688 758.839844 848.097656 742.648438 848.097656 722.714844 C 848.097656 702.746094 863.179688 686.554688 881.769531 686.554688 "/>
    </g>
    <path style=" stroke:none;fill-rule:evenodd;fill:rgb(98.81897%,90.979004%,73.728943%);fill-opacity:1;" d="M 428.027344 653.261719 L 903.226562 666.890625 L 1069.011719 473.8125 L 1077.007812 508.21875 L 904.441406 698.933594 L 428.027344 678.5625 L 428.027344 653.261719 "/>
    <path style=" stroke:none;fill-rule:evenodd;fill:rgb(23.139954%,26.269531%,37.249756%);fill-opacity:1;" d="M 604.578125 230.238281 L 616.117188 331.90625 L 431.335938 429.253906 L 432.921875 299.21875 L 604.578125 230.238281 "/>
    <path style=" stroke:none;fill-rule:evenodd;fill:rgb(98.81897%,90.979004%,73.728943%);fill-opacity:1;" d="M 594.320312 59.929688 L 577.386719 64.957031 C 577.386719 64.957031 611.460938 415.492188 621.886719 485.414062 C 622.761719 491.351562 640.273438 490.441406 639.902344 484.4375 C 635.3125 413.535156 594.320312 59.929688 594.320312 59.929688 Z M 427.320312 102.867188 C 427.320312 102.867188 459.472656 552.609375 462.710938 642.90625 C 462.914062 648.269531 447.324219 650.089844 446.71875 644.761719 C 436.429688 555.339844 400.9375 106.578125 400.9375 106.578125 L 427.320312 102.867188 "/>
    <path style=" stroke:none;fill-rule:evenodd;fill:rgb(23.139954%,26.269531%,37.249756%);fill-opacity:1;" d="M 400.125 85.023438 C 415.882812 71.261719 549.347656 37.867188 582.480469 29.773438 C 588.179688 28.355469 595.875 31.292969 598.875 36.386719 C 602.214844 42.019531 603.601562 59.59375 602.484375 63.605469 C 601.238281 68.195312 578.464844 72.644531 573 71.363281 C 567.871094 70.148438 574.921875 54.800781 569.761719 55.882812 C 546.144531 60.773438 455.019531 90.828125 431.367188 100.710938 C 426.8125 102.597656 432.347656 112.921875 427.894531 115.078125 C 422.699219 117.574219 402.050781 119.769531 400.261719 115.753906 C 398.472656 111.773438 395.742188 88.835938 400.125 85.023438 "/>
    <g clip-path="url(#clip2)" clip-rule="nonzero">
      <path style="fill:none;stroke-width:1.8;stroke-linecap:round;stroke-linejoin:round;stroke:rgb(98.81897%,90.979004%,73.728943%);stroke-opacity:1;stroke-miterlimit:10;" d="M 239.805986 505.362621 L 50.899508 409.0771 M 231.407228 592.121372 L 47.891875 515.911733 M 771.247923 277.158925 C 771.288627 276.06873 774.766627 273.449546 775.467654 272.666958 C 778.945654 268.763063 781.993991 264.660128 784.571962 260.091259 C 793.906931 243.3312 795.74317 218.451221 779.804977 205.405064 M 576.014109 1.692315 C 577.226207 0.244752 581.798714 3.723426 582.499741 4.270786 C 588.279823 8.839655 591.993006 15.833191 594.647864 22.550785 C 601.915933 40.948399 598.243455 63.489661 582.187671 76.182974 M 109.767702 21.808909 C 117.501615 25.79423 123.281697 32.317308 126.524514 38.568968 C 136.212257 57.473229 132.227709 77.200791 118.826783 92.395673 " transform="matrix(0.863688,0,0,-0.863521,397.76527,758.851974)"/>
    </g>
    <path style="fill:none;stroke-width:1.8;stroke-linecap:round;stroke-linejoin:round;stroke:rgb(23.139954%,26.269531%,37.249756%);stroke-opacity:1;stroke-miterlimit:10;" d="M 584.806347 103.682192 L 587.578796 68.841174 " transform="matrix(0.863688,0,0,-0.863521,397.76527,758.852022)"/>
    <g clip-path="url(#clip3)" clip-rule="nonzero">
      <path style=" stroke:none;fill-rule:evenodd;fill:rgb(96.078491%,72.938538%,32.548523%);fill-opacity:1;" d="M 568.625 618.875 L 567.847656 475.609375 L 788.902344 394.988281 L 1018.734375 468.320312 L 1014.738281 593.800781 L 839.320312 700.476562 L 568.625 618.875 "/>
    </g>
    <path style=" stroke:none;fill-rule:evenodd;fill:rgb(99.609375%,96.859741%,89.408875%);fill-opacity:1;" d="M 591.304688 533.328125 L 588.105469 607.378906 L 625.996094 619.375 L 632.039062 543.792969 Z M 669.152344 510.171875 L 748.203125 469.019531 L 793.410156 482.878906 L 718.039062 525.355469 L 708.390625 579.054688 L 665.4375 568 L 669.152344 510.171875 "/>
    <path style=" stroke:none;fill-rule:evenodd;fill:rgb(99.609375%,96.859741%,89.408875%);fill-opacity:1;" d="M 822.539062 504.285156 L 787.035156 525.964844 L 836.011719 541.910156 L 872.3125 519.542969 Z M 976.871094 540.671875 L 972.542969 590.144531 L 855.640625 642.792969 L 856.195312 591.050781 L 976.871094 540.671875 "/>
    <path style=" stroke:none;fill-rule:evenodd;fill:rgb(81.959534%,19.219971%,13.729858%);fill-opacity:1;" d="M 925.597656 585.347656 L 952.417969 562.78125 L 956.261719 577.746094 L 952.195312 576.710938 L 950.753906 580.382812 L 943.730469 580.292969 L 950.363281 583.574219 L 953.691406 579.8125 L 956.648438 579.238281 L 959.382812 586.640625 L 926.726562 588.117188 L 883.328125 608.617188 L 870.964844 622.273438 L 871.371094 596.308594 L 882.21875 601.917969 Z M 966.742188 587.136719 C 962.859375 588.855469 945.0625 596.769531 925.210938 605.609375 C 899.425781 617.105469 870.1875 630.1875 863.292969 633.269531 L 864.273438 594.941406 C 868.707031 593.0625 900.738281 579.589844 928.703125 567.761719 C 947.277344 559.917969 964.0625 552.777344 969.828125 550.324219 Z M 972.25 547.003906 C 971.84375 546.707031 971.324219 546.652344 970.882812 546.835938 C 970.882812 546.835938 950.660156 555.566406 927.742188 565.511719 C 897.746094 578.539062 863.109375 593.652344 863.109375 593.652344 L 863.109375 593.613281 C 862.8125 593.761719 862.628906 594.039062 862.609375 594.371094 L 862.574219 594.371094 L 861.167969 634.875 C 861.148438 635.226562 861.335938 635.558594 861.628906 635.761719 C 861.925781 635.964844 862.296875 636 862.628906 635.851562 C 862.628906 635.851562 896.746094 620.960938 926.265625 608.027344 C 948.8125 598.152344 968.679688 589.425781 968.679688 589.425781 C 969.160156 589.203125 969.476562 588.742188 969.53125 588.226562 L 972.820312 548.238281 C 972.859375 547.757812 972.636719 547.277344 972.25 547.003906 "/>
    <g clip-path="url(#clip4)" clip-rule="nonzero">
      <path style=" stroke:none;fill-rule:evenodd;fill:rgb(74.119568%,39.608765%,11.369324%);fill-opacity:1;" d="M 766.8125 628.289062 C 766.332031 627.253906 765.632812 626.332031 764.578125 625.925781 C 763.339844 625.425781 761.566406 625.425781 760.214844 626.074219 C 759.234375 626.515625 758.476562 627.234375 758.21875 628.304688 C 758.21875 628.34375 758.199219 628.378906 758.164062 628.417969 C 757.925781 629.691406 757.460938 630.925781 757.515625 632.179688 C 757.554688 632.917969 757.867188 633.601562 758.589844 634.359375 C 759.089844 634.910156 759.699219 635.171875 760.328125 635.335938 C 761.34375 635.59375 762.414062 635.375 763.433594 634.96875 C 764.300781 634.617188 765.078125 634.101562 765.722656 633.472656 C 766.351562 632.882812 766.886719 632.21875 767.074219 631.425781 C 767.351562 630.410156 767.238281 629.265625 766.8125 628.289062 Z M 769.363281 626.886719 C 770.363281 628.433594 770.730469 630.335938 770.511719 632.089844 C 770.269531 633.601562 769.511719 635.023438 768.386719 636.148438 C 767.351562 637.183594 766.039062 637.957031 764.632812 638.382812 C 763.78125 638.65625 762.894531 638.804688 762.027344 638.789062 C 759.847656 638.730469 757.792969 637.917969 756.519531 635.925781 C 755.652344 634.46875 755.410156 633.234375 755.652344 632.050781 C 755.964844 630.410156 757.074219 628.988281 757.648438 627.382812 C 757.683594 627.21875 757.851562 627.105469 757.996094 627.105469 C 758.40625 626.019531 759.308594 625.167969 760.417969 624.578125 C 761.917969 623.765625 763.726562 623.5625 765.1875 623.820312 C 766.960938 624.171875 768.386719 625.371094 769.363281 626.886719 Z M 760.511719 605.960938 L 760.53125 605.976562 L 760.53125 605.886719 L 760.492188 605.902344 L 760.511719 605.921875 C 760.511719 605.941406 760.511719 605.941406 760.511719 605.960938 Z M 751.363281 607.898438 C 751.417969 607.914062 751.4375 607.839844 751.453125 607.730469 C 751.34375 607.769531 751.25 607.839844 751.363281 607.898438 Z M 760.492188 605.902344 C 760.363281 605.996094 760.328125 606.089844 760.4375 606.179688 C 760.492188 606.21875 760.511719 606.105469 760.53125 606.050781 C 760.53125 606.035156 760.53125 606.015625 760.53125 605.976562 C 760.566406 606.015625 760.621094 606.035156 760.695312 605.996094 C 760.84375 605.960938 760.84375 605.867188 760.75 605.792969 C 760.660156 605.8125 760.605469 605.847656 760.53125 605.886719 C 760.53125 605.8125 760.53125 605.71875 760.53125 605.644531 L 760.457031 605.609375 C 760.457031 605.71875 760.457031 605.832031 760.492188 605.902344 Z M 751.03125 607.289062 C 750.9375 606.070312 751.121094 603.894531 751.140625 603.746094 C 751.324219 602.066406 751.621094 600.332031 752.082031 598.671875 C 752.398438 597.507812 752.804688 596.382812 753.320312 595.332031 C 753.597656 594.738281 754.042969 593.964844 754.578125 593.410156 C 754.949219 593.042969 755.390625 592.800781 755.855469 592.636719 C 756.832031 592.324219 757.648438 592.671875 758.292969 593.335938 C 759.015625 594.058594 759.402344 595.550781 759.570312 596.214844 C 759.789062 597.101562 759.921875 598.007812 760.03125 598.910156 C 760.160156 600.054688 760.214844 601.21875 760.289062 602.359375 C 760.511719 602.304688 760.714844 602.25 760.898438 602.195312 C 762.210938 601.863281 763.652344 601.714844 765.09375 601.808594 C 766.519531 601.898438 767.941406 602.214844 769.179688 602.785156 C 769.714844 603.027344 770.121094 603.414062 770.363281 603.910156 C 770.601562 603.171875 770.640625 602.269531 770.546875 601.363281 C 770.363281 599.777344 769.789062 598.210938 768.792969 597.527344 C 768.644531 597.414062 768.589844 597.285156 768.515625 597.359375 C 768.421875 597.453125 768.386719 597.582031 768.347656 597.730469 C 768.183594 598.503906 768.328125 599.703125 768.386719 600 C 768.421875 600.109375 768.347656 600.238281 768.238281 600.277344 C 768.125 600.292969 768.015625 600.238281 767.976562 600.128906 C 767.832031 599.722656 767.40625 597.96875 767.664062 597.140625 C 767.867188 596.511719 768.347656 596.179688 769.308594 596.675781 C 770.640625 597.359375 771.675781 599.148438 772.15625 601.089844 C 772.671875 603.15625 772.378906 605.332031 771.359375 606.605469 C 770.03125 608.230469 769.070312 607.453125 768.664062 606.9375 C 768.496094 606.699219 768.367188 606.253906 768.253906 605.71875 C 768.21875 605.589844 768.144531 605.367188 768.089844 605.238281 C 767.128906 604.945312 766.074219 604.832031 765.019531 604.871094 C 763.929688 604.890625 762.839844 605.109375 761.859375 605.441406 C 761.640625 605.515625 761.195312 605.628906 760.84375 605.757812 C 760.9375 605.886719 761.027344 606.015625 761.066406 606.070312 C 761.214844 606.328125 761.289062 606.550781 761.324219 606.734375 C 761.492188 607.398438 761.25 607.898438 760.992188 608.285156 C 760.714844 608.652344 760.179688 609.1875 759.03125 609.003906 C 758.386719 608.894531 757.777344 608.488281 757.371094 607.75 C 756.980469 607.011719 756.816406 605.589844 756.777344 605.203125 C 756.574219 603.210938 756.59375 601.199219 756.480469 599.1875 C 756.445312 598.414062 756.410156 597.636719 756.277344 596.84375 C 756.261719 596.660156 756.222656 596.34375 756.148438 596.011719 C 755.964844 596.234375 755.816406 596.457031 755.6875 596.660156 C 754.984375 597.746094 754.394531 598.929688 753.914062 600.148438 C 753.394531 601.4375 752.988281 602.730469 752.636719 604.023438 C 752.601562 604.167969 752.15625 605.867188 752.007812 607.011719 C 752.140625 607.105469 752.195312 607.25 752.140625 607.398438 C 752.121094 607.492188 752.15625 607.988281 752.101562 608.15625 C 752.027344 608.433594 751.804688 608.488281 751.660156 608.488281 C 751.511719 608.507812 751.398438 608.414062 751.289062 608.304688 C 751.160156 608.175781 751.066406 607.804688 751.03125 607.289062 Z M 759.921875 618.25 C 759.957031 618.378906 759.992188 618.453125 760.105469 618.398438 C 760.214844 618.339844 760.085938 618.285156 759.921875 618.25 Z M 755.816406 613.5625 C 755.78125 613.488281 755.722656 613.523438 755.652344 613.617188 L 755.667969 613.617188 C 755.722656 613.597656 755.855469 613.617188 755.816406 613.5625 Z M 755.207031 613.507812 C 755.171875 613.453125 755.132812 613.414062 755.097656 613.453125 C 755.078125 613.46875 755.132812 613.46875 755.152344 613.488281 Z M 750.679688 620.113281 C 750.734375 620.40625 750.84375 620.628906 751.03125 620.539062 C 751.34375 620.390625 751.046875 620.222656 750.679688 620.113281 Z M 749.589844 620.09375 C 749.570312 620.09375 749.53125 620.113281 749.515625 620.132812 C 749.457031 620.167969 749.144531 620.222656 749.253906 620.296875 C 749.402344 620.371094 749.515625 620.277344 749.589844 620.09375 Z M 771.75 614.652344 C 773.003906 614.300781 774.171875 613.617188 775.5 613.5625 C 775.613281 613.542969 775.722656 613.636719 775.742188 613.746094 C 775.757812 613.875 775.667969 613.96875 775.554688 613.988281 C 774.28125 614.246094 773.28125 615.113281 772.117188 615.648438 C 771.5625 615.90625 770.972656 616.070312 770.324219 616.128906 C 769.125 616.21875 767.792969 615.296875 766.574219 615.019531 C 766.316406 614.964844 766.074219 614.984375 765.835938 615.148438 C 765.261719 615.535156 764.742188 616.515625 764.117188 617.472656 C 763.414062 618.582031 762.617188 619.671875 761.804688 620.390625 C 760.992188 621.089844 760.085938 621.386719 759.179688 621.332031 C 758.515625 621.292969 757.980469 620.941406 757.535156 620.445312 C 757.054688 619.890625 756.777344 618.96875 756.59375 618.414062 C 756.410156 617.789062 756.132812 616.128906 755.667969 614.6875 C 755.59375 614.429688 755.503906 614.191406 755.390625 613.96875 C 755.375 614.003906 755.335938 614.042969 755.316406 614.078125 C 754.984375 614.539062 754.671875 615.09375 754.375 615.683594 C 753.597656 617.234375 752.988281 618.949219 752.636719 619.707031 C 752.507812 619.984375 752.082031 621.164062 751.660156 621.773438 C 751.195312 622.402344 750.660156 622.714844 750.234375 622.734375 C 749.71875 622.75 749.164062 622.621094 748.792969 622.050781 C 748.644531 621.792969 748.460938 621.421875 748.386719 620.960938 C 748.277344 620.316406 748.277344 619.46875 748.257812 619.335938 C 748.203125 618.359375 748.183594 617.382812 748.183594 616.402344 C 748.183594 614.964844 748.238281 613.523438 748.238281 612.085938 C 748.257812 611.828125 748.128906 610.90625 748.164062 610.332031 C 748.183594 610.039062 748.238281 609.816406 748.332031 609.707031 C 748.441406 609.558594 748.664062 609.519531 748.8125 609.632812 C 748.960938 609.742188 748.996094 609.945312 748.886719 610.09375 L 749.347656 611.992188 C 749.644531 613.65625 749.882812 615.277344 750.199219 616.9375 L 750.214844 617.085938 C 750.640625 615.683594 751.214844 613.820312 752.007812 612.4375 C 752.898438 610.867188 754.171875 609.964844 755.390625 609.851562 C 756.519531 609.777344 757.535156 610.277344 758.273438 611.382812 C 758.738281 612.085938 759.105469 613.0625 759.347656 614.132812 C 759.660156 615.5 759.773438 616.976562 759.902344 617.566406 C 759.921875 617.660156 759.902344 617.878906 759.921875 618.082031 C 760.085938 617.992188 760.269531 617.804688 760.457031 617.621094 C 761.988281 616.238281 763.503906 613.929688 764.761719 613.304688 C 765.558594 612.917969 766.332031 612.898438 767.128906 613.210938 C 767.71875 613.433594 768.3125 613.820312 768.921875 614.191406 C 769.382812 614.464844 769.84375 614.761719 770.324219 614.816406 C 770.824219 614.855469 771.285156 614.78125 771.75 614.652344 Z M 780.84375 616.976562 C 780.859375 607.972656 778.550781 598.726562 774.632812 592.0625 C 771.324219 586.472656 766.90625 582.671875 761.730469 582.652344 L 761.730469 582.597656 C 756.519531 582.617188 752.34375 585.699219 749.347656 590.605469 C 745.800781 596.382812 743.914062 604.6875 743.949219 613.65625 C 743.96875 622.695312 746.574219 631.277344 750.769531 637.292969 C 754.226562 642.21875 758.773438 645.394531 763.875 645.394531 C 768.996094 645.394531 772.96875 642.867188 775.777344 638.585938 C 779.125 633.472656 780.824219 625.90625 780.84375 616.976562 Z M 776.332031 591.050781 C 780.472656 597.96875 782.929688 607.601562 782.96875 616.976562 C 782.988281 626.40625 781.15625 634.378906 777.625 639.800781 C 774.410156 644.746094 769.789062 647.589844 763.875 647.589844 C 758.109375 647.570312 752.898438 644.121094 749.015625 638.511719 C 744.636719 632.179688 741.917969 623.15625 741.9375 613.65625 C 741.972656 604.28125 744.042969 595.644531 747.777344 589.628906 C 751.160156 584.183594 755.910156 580.84375 761.730469 580.863281 L 761.730469 580.808594 C 767.515625 580.789062 772.597656 584.832031 776.332031 591.050781 Z M 787.882812 616.679688 C 787.902344 605.203125 784.796875 593.410156 779.511719 584.980469 C 775.148438 577.984375 769.289062 573.316406 762.488281 573.296875 L 762.488281 573.222656 C 755.667969 573.242188 750.160156 577.0625 746.167969 583.152344 C 741.402344 590.460938 738.832031 601.03125 738.867188 612.492188 C 738.886719 624.042969 742.378906 635.003906 748.035156 642.605469 C 752.621094 648.769531 758.609375 652.683594 765.316406 652.683594 C 772.042969 652.683594 777.3125 649.5625 781.027344 644.230469 C 785.554688 637.753906 787.867188 628.101562 787.882812 616.679688 Z M 781.195312 583.925781 C 786.683594 592.617188 789.972656 604.796875 790.011719 616.679688 C 790.027344 628.621094 787.570312 638.714844 782.839844 645.503906 C 778.699219 651.445312 772.820312 654.878906 765.316406 654.878906 C 757.960938 654.859375 751.308594 650.652344 746.316406 643.878906 C 740.457031 635.945312 736.835938 624.523438 736.855469 612.492188 C 736.890625 600.625 739.644531 589.683594 744.636719 582.136719 C 748.996094 575.53125 755.058594 571.488281 762.488281 571.507812 L 762.488281 571.433594 C 769.902344 571.414062 776.386719 576.34375 781.195312 583.925781 Z M 1016.605469 471.417969 L 840.246094 558.386719 C 840.523438 558.535156 840.746094 558.792969 840.746094 559.125 C 840.746094 559.125 840.890625 577.285156 841.039062 600.40625 C 841.078125 609.097656 841.132812 618.507812 841.152344 627.917969 C 841.207031 662.316406 841.132812 696.710938 841.132812 696.710938 C 841.132812 697.171875 840.746094 697.558594 840.265625 697.558594 C 839.800781 697.558594 839.414062 697.191406 839.414062 696.710938 C 839.414062 696.710938 839.101562 662.316406 838.953125 627.917969 C 838.894531 618.527344 838.894531 609.113281 838.878906 600.40625 C 838.859375 577.285156 838.894531 559.144531 838.894531 559.144531 C 838.894531 558.8125 839.082031 558.589844 839.320312 558.425781 C 836.585938 557.613281 786.886719 543.015625 730.734375 526.445312 C 655.085938 504.117188 567.738281 478.226562 567.738281 478.226562 C 567.257812 478.082031 566.960938 477.582031 567.109375 477.085938 C 567.257812 476.605469 567.773438 476.328125 568.253906 476.457031 C 568.253906 476.457031 655.679688 502.089844 731.363281 524.34375 C 786.148438 540.46875 834.773438 554.84375 839.652344 556.285156 L 1015.847656 469.886719 C 1016.273438 469.667969 1016.792969 469.851562 1016.996094 470.273438 C 1017.199219 470.699219 1017.03125 471.214844 1016.605469 471.417969 "/>
    </g>
    <g clip-path="url(#clip5)" clip-rule="nonzero">
      <path style=" stroke:none;fill-rule:evenodd;fill:rgb(23.139954%,26.269531%,37.249756%);fill-opacity:1;" d="M 842.222656 519.730469 L 846.160156 519.730469 L 846.160156 521.425781 L 842.222656 521.425781 Z M 837.933594 518.308594 L 840.097656 518.308594 L 840.097656 520.207031 L 837.933594 520.207031 Z M 829.710938 522.738281 L 833.371094 522.738281 L 833.371094 524.894531 L 829.710938 524.894531 Z M 821.855469 520.597656 L 823.816406 522.679688 L 821.152344 525.191406 L 819.175781 523.105469 Z M 858.171875 520.835938 L 860.558594 519.269531 L 863.679688 520.191406 L 861.445312 522.238281 Z M 825.679688 508.710938 L 823.242188 510.648438 L 820.359375 509.210938 L 822.613281 507.753906 Z M 796.71875 524.636719 L 799.011719 523.160156 L 801.710938 524.582031 L 799.621094 526.058594 Z M 866.417969 519.914062 L 861.519531 523.4375 L 855.695312 521.058594 L 860.300781 517.957031 Z M 852.941406 521.351562 L 861.796875 524.507812 L 868.914062 519.601562 L 860.261719 516.960938 Z M 823.40625 511.8125 L 817.84375 509.578125 L 822.445312 506.460938 L 827.953125 508.289062 Z M 822.410156 505.464844 L 815.089844 509.875 L 824.089844 513.714844 L 830.671875 508.160156 Z M 803.816406 524.269531 L 799.785156 527.222656 L 794.222656 524.988281 L 798.824219 521.886719 Z M 791.46875 525.285156 L 800.324219 528.4375 L 806.753906 524.25 L 798.789062 520.890625 Z M 780.878906 444.347656 C 775.464844 439.808594 764.375 433.277344 754.707031 425.230469 C 749.089844 420.5625 743.949219 415.378906 740.828125 409.730469 C 738.054688 404.765625 735.800781 395.429688 737.554688 388.546875 C 738.628906 384.339844 741.363281 381.148438 746.796875 380.980469 C 749.179688 380.90625 751.324219 381.757812 753.285156 383.03125 C 756.480469 385.152344 759.164062 388.398438 761.34375 391.203125 C 766 397.203125 770.214844 403.695312 773.855469 410.507812 C 777.480469 417.316406 780.507812 424.4375 782.820312 431.671875 C 784.132812 435.785156 786.425781 445.605469 787.921875 450.992188 C 787.664062 450.808594 787.421875 450.605469 787.164062 450.402344 C 784.984375 448.59375 782.988281 446.101562 780.878906 444.347656 Z M 833.019531 419.605469 C 854.253906 411.925781 876.195312 411.796875 881.351562 413.3125 C 886.953125 414.953125 889.816406 419.4375 890.59375 424.679688 C 884.734375 424.53125 877.414062 425.601562 869.449219 427.484375 C 858.414062 430.066406 846.179688 434.050781 835.144531 438.074219 C 818.953125 443.960938 805.40625 449.886719 802.058594 450.476562 L 794.519531 451.582031 C 794.964844 450.402344 795.351562 449.3125 795.425781 449.183594 C 803.539062 434.070312 818.121094 424.972656 833.019531 419.605469 Z M 889.722656 435.121094 C 887.136719 443.648438 880.148438 451.101562 870.316406 449.625 C 866.324219 449.035156 858.988281 449.292969 850.539062 449.957031 C 834.164062 451.289062 813.484375 454.109375 805.683594 454.738281 C 804.960938 454.792969 803.59375 454.664062 801.765625 454.386719 C 802.078125 454.351562 802.394531 454.3125 802.707031 454.257812 C 806.125 453.6875 820.117188 448.113281 836.621094 442.117188 C 847.527344 438.167969 859.523438 434.015625 870.371094 431.300781 C 878.097656 429.382812 885.195312 428.148438 890.832031 428.222656 C 890.796875 430.507812 890.425781 432.871094 889.722656 435.121094 Z M 931.21875 522.625 C 929.425781 514.027344 927.316406 507.789062 925.300781 505.207031 C 920.480469 499.007812 911.035156 493.378906 899.703125 488.378906 C 877.507812 478.597656 848.007812 471.070312 834.074219 464.980469 C 831.539062 463.871094 827.121094 462.542969 821.949219 461.160156 C 818.289062 460.179688 814.257812 459.203125 810.265625 458.242188 C 819.839844 457.265625 836.898438 455.105469 850.875 454.019531 C 858.914062 453.410156 865.898438 453.132812 869.707031 453.722656 C 881.738281 455.566406 890.554688 446.765625 893.753906 436.359375 C 894.546875 433.8125 894.9375 431.171875 895.007812 428.570312 C 896.5625 428.847656 897.949219 429.273438 899.058594 429.917969 C 899.871094 430.398438 900.886719 430.121094 901.367188 429.328125 C 901.847656 428.535156 901.589844 427.5 900.777344 427.023438 C 899.1875 426.0625 897.171875 425.433594 894.84375 425.046875 C 894.066406 417.8125 890.203125 411.464844 882.570312 409.214844 C 877.117188 407.609375 853.941406 407.441406 831.539062 415.542969 C 815.699219 421.265625 800.269531 431.082031 791.671875 447.191406 C 791.636719 447.226562 791.5625 447.449219 791.433594 447.761719 C 789.953125 442.191406 787.996094 434.050781 786.8125 430.398438 C 784.410156 422.925781 781.25 415.597656 777.496094 408.570312 C 773.726562 401.554688 769.363281 394.875 764.539062 388.714844 C 762.101562 385.59375 759.070312 382.015625 755.484375 379.671875 C 752.839844 377.957031 749.882812 376.886719 746.667969 376.996094 C 739.070312 377.253906 735.207031 381.683594 733.75 387.585938 C 731.789062 395.394531 734.320312 405.96875 737.480469 411.59375 C 740.847656 417.59375 746.296875 423.148438 752.304688 428.109375 C 762.007812 436.117188 773.136719 442.597656 778.585938 447.097656 C 779.84375 448.148438 781.0625 449.441406 782.320312 450.714844 C 761.640625 446.542969 731.511719 440.289062 706.320312 437.390625 C 694.566406 436.046875 683.84375 435.4375 675.675781 436.082031 C 669.890625 436.542969 665.324219 437.667969 662.386719 439.496094 C 661.59375 439.992188 661.351562 441.027344 661.851562 441.820312 C 662.332031 442.597656 663.367188 442.835938 664.160156 442.355469 C 666.765625 440.730469 670.832031 439.882812 675.933594 439.496094 C 683.9375 438.886719 694.398438 439.550781 705.914062 440.917969 C 732.308594 444.054688 764.152344 450.9375 784.742188 455.125 C 784.539062 455.164062 784.355469 455.21875 784.152344 455.253906 C 778.511719 456.101562 772.359375 455.769531 767.867188 455.9375 C 764.761719 456.066406 761.621094 456.140625 758.496094 456.214844 C 753.800781 456.304688 749.109375 456.378906 744.394531 456.4375 C 736.835938 456.582031 726.355469 455.9375 715.15625 455.882812 C 700.074219 455.828125 683.679688 456.878906 671.09375 461.917969 C 660.261719 466.234375 652.183594 473.484375 649.726562 485.332031 L 653.015625 486.050781 C 656.101562 472.15625 667.894531 465.699219 682.238281 462.652344 C 691.902344 460.605469 702.734375 460.144531 713.046875 460.164062 C 725.0625 460.179688 736.410156 460.847656 744.488281 460.660156 C 749.199219 460.550781 753.914062 460.441406 758.609375 460.292969 C 761.769531 460.179688 764.910156 460.050781 768.050781 459.90625 C 772.175781 459.683594 777.683594 459.792969 782.929688 459.128906 C 766.832031 469.796875 745.78125 482.839844 727.703125 495.648438 C 717.519531 502.863281 708.296875 509.984375 701.402344 516.535156 C 694.640625 523.011719 688.910156 531.226562 684.160156 540.453125 C 677.671875 553.054688 672.976562 567.523438 669.742188 581.769531 C 663.476562 609.355469 662.738281 636.113281 664.863281 647.015625 C 665.269531 649.140625 665.824219 650.707031 666.417969 651.6875 C 667.027344 652.683594 667.785156 653.21875 668.503906 653.382812 C 669.375 653.605469 670.371094 653.421875 671.371094 652.460938 C 672.035156 651.832031 672.070312 650.761719 671.425781 650.097656 C 670.851562 649.507812 669.964844 649.417969 669.300781 649.839844 C 669.171875 649.582031 668.984375 649.230469 668.875 648.917969 C 668.523438 647.941406 668.246094 646.609375 668.007812 645.023438 C 666.046875 631.535156 668.097656 599.09375 677.359375 568.832031 C 683.179688 549.769531 691.867188 531.558594 704.398438 519.65625 C 711.125 513.195312 720.183594 506.183594 730.144531 499.0625 C 750.492188 484.464844 774.539062 469.445312 791.007812 457.984375 C 792.210938 458.648438 794.425781 459.5 794.796875 459.683594 C 798.253906 461.34375 801.652344 463.132812 804.960938 465.089844 C 808.253906 467.007812 811.429688 469.09375 814.519531 471.382812 C 820.929688 476.125 826.511719 481.699219 831.964844 487.382812 C 837.527344 493.195312 842.960938 499.136719 848.878906 504.632812 C 853.960938 509.359375 859.394531 513.730469 865.585938 517.386719 C 868.5625 519.121094 874.84375 523.253906 880.410156 525.191406 C 883.402344 526.242188 886.230469 526.628906 888.375 525.984375 L 887.414062 522.753906 C 885.34375 523.347656 882.476562 522.367188 879.539062 521.039062 C 874.828125 518.917969 870.003906 515.613281 867.542969 514.121094 C 861.667969 510.519531 856.546875 506.222656 851.722656 501.625 C 845.917969 496.109375 840.617188 490.148438 835.070312 484.390625 C 829.453125 478.542969 823.59375 472.933594 816.921875 468.097656 C 813.6875 465.792969 810.339844 463.667969 806.882812 461.730469 C 806.257812 461.382812 805.570312 461.085938 804.925781 460.734375 C 810.25 462.007812 815.960938 463.429688 820.96875 464.8125 C 825.882812 466.160156 830.097656 467.46875 832.5 468.539062 C 846.398438 474.703125 875.804688 482.453125 897.96875 492.289062 C 908.503906 496.976562 917.410156 502.070312 921.902344 507.84375 C 923.714844 510.152344 925.414062 515.796875 927.039062 523.492188 C 930.664062 540.65625 933.398438 567.726562 933.398438 592.800781 C 933.398438 616.957031 930.976562 639.265625 924.046875 648.714844 C 923.492188 649.453125 923.65625 650.503906 924.398438 651.058594 C 925.15625 651.613281 926.207031 651.445312 926.761719 650.707031 C 934.027344 640.964844 937.074219 617.878906 937.242188 592.820312 C 937.425781 567.429688 934.804688 540.007812 931.21875 522.625 "/>
    </g>
  </g>
</svg>
